# xmcd
#
# Track frame offsets: 
#        150
#        18580
#        39375
#        56020
#        78152
#        95545
#        118647
#        145707
#        162442
#        178712
#        213518
#
# Disc length: 3117 seconds
#
# Revision: 10
# Processed by: cddbd v1.5.2PL0 Copyright (c) Steve Scherf et al.
# Submitted via: ExactAudioCopy v0.99pb5
#
DISCID=900c2b0b
DTITLE=Sonata Arctica - Ecliptica
DYEAR=2000
DGENRE=Heavy Metal
TTITLE0=Blank File
TTITLE1=My Land
TTITLE2=8th Commandment
TTITLE3=Replica
TTITLE4=Kingdom For A Heart
TTITLE5=Full Moon
TTITLE6=Letter To Dana
TTITLE7=Unopened
TTITLE8=Picturing The Past
TTITLE9=Destruction Preventer
TTITLE10=Mary-Lou
EXTD=YEAR: 2000
EXTT0=
EXTT1=
EXTT2=
EXTT3=
EXTT4=
EXTT5=
EXTT6=
EXTT7=
EXTT8=
EXTT9=
EXTT10=
PLAYORDER=
